<svg version="1.2" xmlns="http://www.w3.org/2000/svg" viewBox="0 0 225 82" width="225" height="82">
	<title>logo-svg</title>
	<defs>
		<clipPath clipPathUnits="userSpaceOnUse" id="cp1">
			<path d="m33.39 27c-11.49 6.85-15.26 21.71-8.42 33.2 6.84 11.49 21.7 15.26 33.19 8.42 11.49-6.84 15.27-21.7 8.43-33.19-4.53-7.61-12.58-11.84-20.84-11.84-4.21 0-8.48 1.1-12.36 3.41z"/>
		</clipPath>
	</defs>
	<style>
		.s0 { fill: #00b9f2 } 
		.s1 { fill: #2ca748 } 
		.s2 { fill: #00b8f1 } 
		.s3 { fill: #ff9036 } 
	</style>
	<path id="Path 1" fill-rule="evenodd" class="s0" d="m105.3 45.6h0.4c2.8 0 3.9-2 3.9-5h5.8v0.3c0 6.9-3.4 9.7-10.1 9.7-7.3 0-10.5-4-10.5-13.8v-1.4c0-9.8 3.2-13.8 10.5-13.8 6.7 0 10.1 2.8 10.1 9.8v1.3h-5.8c0-3.8-0.9-6.1-3.9-6.1h-0.4c-3.7 0-4.6 3.2-4.6 8.8v1.4c0 5.6 0.9 8.8 4.6 8.8zm12.9-8.8v-1.4c0-9.8 3.4-13.8 10.7-13.8 7.3 0 10.8 4 10.8 13.8v1.4c0 9.8-3.5 13.8-10.8 13.8-7.3 0-10.7-4-10.7-13.8zm10.9 8.8c3.6 0 4.6-3.2 4.6-8.8v-1.4c0-5.6-1-8.8-4.6-8.8h-0.3c-3.6 0-4.7 3.2-4.7 8.8v1.4c0 5.6 1.1 8.8 4.7 8.8zm34.5 4.6h-6.1l-9.1-17.5 0.2 5.7v11.8h-5.5v-28.2h6.1l9.1 17.5-0.2-5.7v-11.8h5.5zm8.8 0.3l-4-28.4h4l3.1 24.1 9.5-24.1h4.1l-11.4 28.4z"/>
	<path id="Path 2" fill-rule="evenodd" class="s0" d="m210.1 35.3l-0.2 1.6c-1.3 9.7-4.7 13.7-11.4 13.7-7.2 0-9.9-4-8.7-13.7l0.2-1.6c1.3-9.7 4.8-13.7 11.4-13.7 7.2 0 10 4 8.7 13.7zm-11.4 12c4.3 0 6.4-3.2 7.4-10.4l0.2-1.6c0.9-7.2-0.4-10.4-4.8-10.4h-0.2c-4.4 0-6.5 3.2-7.4 10.4l-0.2 1.6c-1 7.2 0.3 10.4 4.7 10.4zm17.6 2.9h-3.7l3.7-28.2h3.7z"/>
	<path id="Path 3" fill-rule="evenodd" class="s1" d="m110.9 58.4l-0.4 1.8h-11.3l-1.1 4.8h9.8l-0.4 1.8h-9.8l-1.1 5.1h11.4l-0.4 1.8h-14.8l3.4-15.3zm19 15.3h-3.5l-8.2-11.7-0.6 3.4-1.8 8.3h-3.4l3.4-15.3h3.6l8.1 11.7 0.7-3.4 1.8-8.3h3.3zm23.9-15.4l-0.4 1.8h-11.3l-1.1 4.8h9.7l-0.4 1.8h-9.7l-1.1 5.2h11.4l-0.4 1.8h-14.8l3.3-15.4zm5 15.4h-3.4l3.4-15.4h7.3c3.8 0 8.3 1 7.5 4.6l-0.1 0.4c-0.6 2.4-2.8 3.6-5.3 4.1l3 6.3h-3.7l-2.6-6h-4.8zm6.1-7.8c2 0 4.7-0.5 5.1-2.7l0.1-0.2c0.5-2.3-1.8-2.8-4-2.8h-4.3l-1.3 5.7zm12.3 0.6l0.2-0.9c1.2-5.3 4.6-7.5 10.7-7.5 6 0 8.5 1.8 7.6 5.4l-0.1 0.5h-3.5c0.6-2.7-0.3-4.1-3.8-4.1h-0.3c-4 0-6.3 1.8-7.1 5.7l-0.2 0.9c-0.9 3.9 0.7 5.6 4.7 5.6h0.2c2.1 0 3.8-0.4 5-0.9l0.8-3.5h-4.1l0.4-1.8h7.5l-1.4 6.2c-2 1-4.1 1.8-8.3 1.8-6.6 0-9.4-2.1-8.3-7.4zm30.8 7.2h-3.5l1.1-4.7-5.2-10.6h3.6l3.8 8.1 7.2-8.1h3.8l-9.8 10.6z"/>
	<path id="Path 4" class="s2" d="m55.5 57.1q-2.3 2.5-4.6 4.9c-0.6 0.6-1.2 1.2-1.4 2-0.3 0.8-0.2 1.7 0.2 2.3q1.6 2.3 3.3 4.6 2.6-0.8 5.2-2.3 1.7-1 3.2-2.2 0.5-0.8 1-1.5c0.4-0.6 0.6-1.4 0.5-2.1 0-0.5-0.2-1-0.6-1.3q-2.1-2.3-4.2-4.6-0.4-0.4-0.9-0.5-0.1 0-0.2 0c-0.5 0-1.1 0.2-1.5 0.7zm7.7-8.2q-1.1 1.1-2.1 2.2-0.8 0.9-1.7 1.8-0.2 0.3-0.4 0.7c-0.2 0.6-0.1 1.4 0.4 1.9q1.6 1.7 3.3 3.4c0.5 0.6 1 1.3 1.8 1.5 0.6 0.1 1.3-0.2 1.7-0.8q0.3-0.5 0.6-0.9 0.8-1.1 1.5-2.1 0.8-2.1 1.3-4.2-0.1-0.1-0.2-0.2-2-1.7-4-3.4-0.3-0.3-0.7-0.3-0.2-0.1-0.4-0.1c-0.4 0-0.8 0.2-1.1 0.5zm5.7-6.1q-0.6 0.7-1.2 1.3-0.8 0.8-1.6 1.7c-0.5 0.6-0.5 1.5 0.2 2q1.5 1.2 3 2.5 0.2 0.2 0.5 0.4c0.3-2.7 0.2-5.5-0.4-8.2q-0.3 0.1-0.5 0.3zm-28.9 15c-0.5 0-1.2 0.3-1.7 0.7-2.5 2-7.6 7.7-7.9 8.1 2.9 2.5 5.5 3.6 9 4.6q2.1-2.1 4.1-4.2c0.5-0.5 0.8-1 1-1.6 0.3-0.8 0.4-1.6 0-2.2q-1.7-2.5-3.3-4.9c-0.2-0.4-0.6-0.5-1.1-0.5q0 0-0.1 0zm9-8.1q-2.2 1.8-4.4 3.6c-0.8 0.7-1.7 1.3-1.8 2.3-0.1 0.5-0.1 0.9 0.1 1.2q1.5 2 2.9 4.1c0.4 0.6 0.8 1.2 1.7 1.2 1-0.1 1.7-0.9 2.4-1.7q2.3-2.2 4.5-4.5 0.4-0.4 0.5-0.8c0.3-0.7 0.2-1.4-0.2-1.9q-1.7-1.8-3.3-3.6-0.4-0.4-0.9-0.4-0.1 0-0.1 0c-0.5 0-1 0.2-1.4 0.5zm4.6-3.7c-0.5 0.4-1.1 0.8-1.3 1.4-0.1 0.4 0 0.8 0.3 1.1q1.1 1.2 2.3 2.3 0.5 0.6 1.1 1.2 0.3 0.4 0.9 0.4c0.5 0.1 1.1-0.1 1.5-0.6q1.9-1.9 3.7-3.8c0.6-0.6 0.6-1.5 0-2q-0.1-0.1-0.3-0.3-1.5-1.2-3-2.5-0.2-0.2-0.6-0.3c-0.1 0-4.3 2.8-4.6 3.1zm6.2-3.6q1.2 1 2.5 2.1c0.4 0.3 0.8 0.8 1.4 0.9q0.8 0.2 1.5-0.5 1.4-1.4 2.7-2.8c0.4-0.4 0.4-0.9 0-1.3q-0.1-0.2-0.2-0.2c-1-0.8-3.5-0.9-3.9-0.9-0.3 0-4.3 2.4-4 2.7zm-13.2 25.3c-0.6 0-1.4 0.3-2 1q-1.4 1.5-2.8 3c2.7 0.5 5.5 0.4 8.3-0.1q-1.1-1.6-2.2-3.3c-0.3-0.4-0.8-0.6-1.3-0.6q0 0 0 0z"/>
	<g id="Mask" clip-path="url(#cp1)">
		<path id="Path 6" class="s3" d="m26.2 62.2c-8-10.7-5.8-25.9 4.9-33.9 10.7-8 25.9-5.8 33.9 4.9l-19.8 13.5z"/>
	</g>
	<path id="Path 8" class="s3" d="m43.9 17.1l-3.8 0.5-1.4-10.1 3.9-0.5zm-15.3 5.3l-3.1 2.4-6.2-8 3.1-2.4zm-10.6 12.3l-1.5 3.5-9.4-3.8 1.5-3.6zm-3 15.9l0.5 3.9-10.1 1.3-0.5-3.8zm5.4 15.3l2.3 3.1-8 6.2-2.4-3.1zm-5.6 9.3l-2.4-3.1 65.4-50.6 2.4 3-10.5 8.4c0 0-8.7 2.2-24.3 14.3-14 10.8-21.6 21.5-21.6 21.5zm45.1-55.1l-3.6-1.4 3.9-9.4 3.6 1.4z"/>
</svg>